<?xml version="1.0" encoding="UTF-8"?>
<!DOCTYPE svg PUBLIC "-//W3C//DTD SVG 1.1//EN" "http://www.w3.org/Graphics/SVG/1.1/DTD/svg11.dtd">
<!-- Creator: CorelDRAW 2020 (64-Bit) -->
<svg xmlns="http://www.w3.org/2000/svg" xml:space="preserve" width="210mm" height="186mm" version="1.1" style="shape-rendering:geometricPrecision; text-rendering:geometricPrecision; image-rendering:optimizeQuality; fill-rule:evenodd; clip-rule:evenodd"
viewBox="0 0 21000 18600"
 xmlns:xlink="http://www.w3.org/1999/xlink"
 xmlns:xodm="http://www.corel.com/coreldraw/odm/2003">
 <defs>
  <style type="text/css">
   <![CDATA[
    .fil0 {fill:#FEFEFE;fill-rule:nonzero}
   ]]>
  </style>
 </defs>
 <g id="Layer_x0020_1">
  <metadata id="CorelCorpID_0Corel-Layer"/>
  <g id="_2624377452368">
   <path class="fil0" d="M14968.89 6560.67c101.83,118.31 350.27,410.83 457.18,571.13 127.1,190.57 261.64,406.71 351.06,564.22 50.45,88.68 175.3,395.02 205.59,504.25 52.58,189.9 80.5,370.07 89.36,540.17 128.41,-225.1 242.24,-459.6 340.33,-702.15 -1.22,-112.87 -7.64,-229.77 -21.45,-351.97 -12.05,-106.86 -90.39,-477.11 -119.7,-565.98 -65.86,-199.53 -167.61,-475.77 -265.51,-720.81 -79.97,-200.04 -296.3,-610.39 -360.62,-731.41 -368.92,-693.62 -792.12,-1955.04 39.97,-3212.33l-1006.38 0 0 3691.12c108.73,202.46 221.77,334.22 290.17,413.76z"/>
   <path class="fil0" d="M16587.22 4158.09c-156.83,-519.39 -383.76,-1008.2 -670.16,-1455.58 -645.47,1031.71 -376.2,2065.11 13.99,2802.71 57.54,-430.4 220.92,-977.61 656.17,-1347.13z"/>
   <path class="fil0" d="M15686.41 9331.08c74.69,-293.5 90.03,-643.46 -20.59,-1043.1 -22.29,-80.33 -138.11,-365.34 -174.59,-429.5 -85.91,-151.14 -215.66,-359.64 -338.76,-544.22 -99.46,-149.2 -356.43,-450.34 -432.83,-539.09 -13.98,-16.24 -27.37,-32.71 -40.94,-49.19l0 3658.74c378.07,-307.76 716.7,-661.94 1007.71,-1053.64z"/>
   <path class="fil0" d="M16322.76 5201.87c-114.56,411.81 -94.57,804.36 -86.88,905.1 29.63,63.18 55.8,121.94 75.23,170.52 100.2,250.86 204.59,534.29 272.43,739.79 17.21,52.22 44.7,166.39 70.51,286.22 119.1,-464.93 182.77,-952.11 182.77,-1454.17 0,-457.37 -53.24,-902.13 -152.6,-1329.19 -162.84,176.09 -284.05,403.26 -361.46,681.73z"/>
   <path class="fil0" d="M13247.91 9192.14c-90.93,-99.77 -185.01,-176.83 -287.39,-235.29 -305.74,-175.13 -675.57,-190.93 -1098.81,-47.06l-129.29 44.09c-261.94,89.25 -512.37,174.47 -739.1,239.34 -108.62,419.34 -312.96,789.64 -612.57,1111.06 213.48,-61.18 456.39,-142.16 718.76,-231.52l129.52 -44.1c516.71,-175.61 977,-151.08 1368.02,72.93 259.94,148.67 476.03,379.53 642.25,686.11l2.31 4.48 146.83 292.3 0 -1698.85 -140.53 -193.49z"/>
   <path class="fil0" d="M11532.06 7733.39c-167.27,63.91 -337.42,128.55 -504.02,178.83 38.17,168.83 58.4,341.47 58.4,518.49 0,137.14 -8.78,269.81 -24.71,398.83 176.57,-54.88 367.16,-119.68 564.59,-186.93l129.38 -44.16c516.86,-175.62 977.07,-150.96 1368.16,72.93 93.58,53.49 180.94,118.43 264.6,195.98l0 -1266.38 -333.84 -119.89c-490.92,-142.12 -1038.92,67.36 -1522.56,252.3z"/>
   <path class="fil0" d="M12948.95 10942.19c-136.41,-250.86 -309.73,-437.62 -515.27,-555.19 -305.68,-175.14 -675.45,-190.95 -1098.7,-47.02l-129.46 44.12c-476.03,162.1 -864.75,290.04 -1174.25,339.89l-175.25 25.45c-336.14,223.35 -711.84,372.42 -1127.29,447.07 -21.21,3.81 -24.9,32.88 -5.03,41.24 697.38,293.93 1463.63,456.75 2267.92,456.75 752.92,0 1472.47,-142.59 2133.42,-401.87l-176.09 -350.44z"/>
   <path class="fil0" d="M10156.13 6573.05c242.07,152.7 449.55,383.39 622.39,691.98 60.94,108.73 111.63,219.64 154.47,332.32 155.99,-47.18 320.15,-109.46 481.65,-171.13 533.63,-204.08 1138.45,-435.37 1737.26,-259.32l9.14 3.02 227.42 81.6 0 -756.26 -3235.96 0 -40.95 0 -95.48 0c13.69,6.61 27.33,13.44 40.84,20.54 23.39,12.29 89.29,51 99.22,57.25z"/>
   <path class="fil0" d="M6972.5 8791.8c218.08,-272.55 184.27,-630.08 183.9,-633.65l-0.91 -9.39c-6.23,-74.44 -79.17,-710.64 -760.74,-710.64 -553.85,0 -624,440.1 -632.48,528.31 -6.25,64.87 -11.09,283.12 186.57,366.06 2.61,1.03 8.36,3.76 10.85,4.91 58.16,27.92 172.77,61.86 287.32,-24.66 50.23,-37.91 72.45,-148.12 72.88,-185.55 0.96,-90.14 74.33,-163.68 164.47,-163.68l0.55 0c90.44,0.31 163.56,72.51 163.85,162.89 0,2.92 -1.39,296.11 -203.54,448.76 -169.67,128.07 -384.37,155.99 -582.75,78.22 93.53,170.7 195.24,336.32 304.83,496.19 11.55,-0.62 19.25,-1.22 24.16,-1.7 359.83,-38.29 622.56,-158.11 781.04,-356.07z"/>
   <path class="fil0" d="M9202.36 6935.15c-410.59,-342.08 -945.75,-513.21 -1605.55,-513.21 -215.11,0 -422.84,17.2 -623.18,51.36l0 -1151.04c122.12,14.67 227.3,22 315.25,22 586.52,0 1094.77,-163.68 1524.87,-491.18 459.36,-351.9 689.13,-796.6 689.13,-1334.28 0,-415.38 -142.9,-773.41 -428.83,-1074.05 -285.92,-300.52 -636.67,-450.83 -1052.05,-450.83 -567.37,0 -1158.92,147.03 -1774.32,440.41 -387.53,537.45 -685.87,1143.29 -873.73,1796.02 2022.27,5.51 2348,-4.19 2391.45,-8.85 272.29,-28.96 470.14,-118.43 588.15,-265.93 161.31,-201.62 136.84,-468.09 136.6,-470.77l-0.72 -7.38c-4.86,-55.74 -59.5,-525.02 -560.9,-525.02 -393.15,0 -451.74,292.28 -460.34,381.88 -5.27,55.67 -3.33,191.91 129.65,252.9 29.62,13.58 132.05,53.56 201.35,-5.8 13.81,-11.82 55.86,-47.86 29.57,-122.2 -30.29,-85.6 14.6,-179.54 100.2,-209.83 85.58,-30.35 179.55,14.47 209.84,100.12 49.06,138.67 41.84,338.03 -125.53,481.55 -217.53,186.52 -478.01,89.29 -552.65,55.05 -221.83,-101.83 -344.45,-325.23 -319.79,-583.11 32.42,-338.22 288.54,-679.45 787.7,-679.45 648.49,0 864.68,539.27 888.43,824.41l0.31 3.4c4.41,45.92 31.37,411.91 -206.94,709.72 -174.94,218.56 -447.42,348.93 -810.04,387.46 -76.82,8.23 -536,12.35 -1369.06,12.35 -323.62,0 -704.59,-0.65 -1140.63,-1.87 -84.57,374.98 -132.96,763.59 -141.57,1162.06l679.44 0c90.82,0 164.47,73.61 164.47,164.47 0,90.8 -73.65,164.42 -164.47,164.42l-678.23 0c20.17,598.74 130.24,1174.71 317.55,1714.64 99.6,-347.78 403.21,-655.32 926.96,-655.32 794.01,0 1059.09,660.78 1088.35,1010.19l0.48 5.34c0.07,0.3 9.22,82.14 -1.2,205.17l1393.29 0c90.8,0 164.47,73.6 164.47,164.42 0,90.86 -73.67,164.45 -164.47,164.45l-1453.57 0c-2.8,0 -5.39,-0.72 -8.19,-0.84 -38.63,112.2 -97.04,229.71 -184.7,339.3 -188.46,235.59 -470.69,388.06 -840.28,454.51 47.26,60.23 95.48,119.59 144.92,177.87 445.12,314.15 953.01,472.56 1524.81,472.56 459.36,0 869.88,-153.99 1231.65,-461.85 386.01,-322.63 579.14,-711.18 579.14,-1165.7 0,-659.82 -222.45,-1172.96 -667.09,-1539.52z"/>
   <path class="fil0" d="M12092.78 4550.5c0,62.93 -51,113.95 -113.88,113.95 -62.93,0 -113.95,-51.02 -113.95,-113.95 0,-62.94 51.02,-113.96 113.95,-113.96 62.88,0 113.88,51.02 113.88,113.96zm307.62 -1437.21c169.86,0 307.63,137.76 307.63,307.62 0,169.91 -137.77,307.61 -307.63,307.61 -169.92,0 -307.62,-137.7 -307.62,-307.61 0,-169.86 137.7,-307.62 307.62,-307.62zm-1311.63 -211.41c-62.93,0 -113.95,-51.02 -113.95,-113.95 0,-62.89 51.02,-113.89 113.95,-113.89 62.94,0 113.95,51 113.95,113.89 0,62.93 -51.01,113.95 -113.95,113.95zm-480.25 -1809.78c-106.93,0 -193.62,-86.68 -193.62,-193.61 0,-106.91 86.69,-193.59 193.62,-193.59 106.91,0 193.61,86.68 193.61,193.59 0,106.93 -86.7,193.61 -193.61,193.61zm1482.27 190.71l2549.24 0c-999.96,-800 -2268.22,-1278.69 -3648.36,-1278.69 -1100.28,0 -2129.43,304.23 -3008.29,832.83 25.14,-0.54 50.33,-1.39 75.29,-1.39 757.52,0 1395.34,237.15 1913.46,711.13 537.58,483.9 806.42,1099.72 806.42,1847.5 0,701.12 -300.04,1316.23 -899.81,1845.2 -32.72,28.9 -12.13,82.87 31.49,82.87l3478.21 0 0 -2866.49 -1297.65 0 0 -1172.96z"/>
   <path class="fil0" d="M5029.93 18536.18l-164.83 -1023.58 47.31 0 712.76 955.91c67.67,115.03 202.94,135.33 405.87,135.33 392.31,0 825.2,-202.93 825.2,-689.97 0,-419.32 -317.91,-629.05 -683.21,-723.74l-412.58 -108.18c-507.29,-128.55 -906.37,-459.98 -906.37,-980.81 0,-615.54 601.97,-980.76 1271.65,-980.76 297.62,0 588.45,47.3 886.07,135.26l174.54 895.04 -47.33 0 -742.74 -868.02c-54.1,-81.11 -175.86,-94.68 -358.5,-94.68 -324.65,0 -717,135.26 -717,595.24 0,385.57 270.61,615.54 581.72,696.71l419.39 108.18c574.94,148.84 1061.93,453.19 1061.93,1028.19 0,608.75 -527.57,1048.36 -1373.07,1048.36 -331.48,0 -689.97,-40.59 -980.81,-128.48z"/>
   <path class="fil0" d="M9411.19 18353.55c223.23,0 446.39,-81.17 568.15,-189.37l27.08 33.79c-202.93,216.45 -574.94,432.9 -967.24,432.9 -372.01,0 -798.18,-94.69 -798.18,-683.14l0 -2387.74 -723.71 0 0 -27.01 1305.44 -1082.28 27.03 0 0 730.57 1140.32 0 -270.54 378.72 -869.78 0 0 2279.49c0,399.09 263.81,514.07 561.43,514.07z"/>
   <path class="fil0" d="M13674.23 18353.55c223.23,0 446.39,-81.17 568.16,-189.37l27.08 33.79c-202.94,216.45 -574.94,432.9 -967.25,432.9 -372.01,0 -798.17,-94.69 -798.17,-683.14l0 -2387.74 -723.74 0 0 -27.01 1305.46 -1082.28 27.01 0 0 730.57 1140.32 0 -270.54 378.72 -869.78 0 0 2279.49c0,399.09 263.83,514.07 561.45,514.07z"/>
   <path class="fil0" d="M3662.84 17623.05c-6.78,486.99 -338.19,777.82 -642.55,777.82 -344.97,0 -656.11,-284.05 -656.11,-744.01 0,-514.07 568.16,-777.88 1001.04,-1062 121.77,-81.11 223.23,-162.29 311.14,-250.25l-13.52 1278.44zm611.66 953.68l0 -67.61 -2.9 0 2.9 -1015.82 0 -0.43 0 0 3.88 -1378.2c0,-845.5 -493.77,-1007.84 -980.76,-1007.84 -493.83,0 -872.57,223.23 -1251.36,493.77 -236.72,169.14 -426.09,304.4 -426.09,507.28 0,169.13 216.38,284.11 459.91,284.11 81.17,0 155.55,-13.51 236.72,-40.59 -87.9,-784.61 196.16,-1122.81 669.63,-1122.81 351.78,0 689.93,236.73 689.93,771.1 0,216.45 -94.69,365.22 -284.06,500.48 -142.04,94.69 -317.9,189.44 -547.86,290.91 -750.8,331.41 -1197.26,439.66 -1197.26,974.03 0,527.56 500.55,899.57 1068.71,899.57 507.29,0 804.91,-304.33 953.75,-744.01l0 656.06 604.86 0z"/>
   <polygon class="fil0" points="11059.84,18488.84 11059.84,18556.45 10451.09,18556.45 10451.09,18488.84 10451.09,17785.66 10451.09,15120.36 11587.47,15539.74 11587.47,15566.82 11059.84,15850.86 11059.84,18214.37 "/>
   <path class="fil0" d="M19750.17 17623.05c-6.78,486.99 -338.21,777.82 -642.54,777.82 -345,0 -656.13,-284.05 -656.13,-744.01 0,-514.07 568.16,-777.88 1001.05,-1062 121.77,-81.11 223.24,-162.29 311.14,-250.25l-13.52 1278.44zm611.66 953.68l0 -67.61 -2.9 0 2.9 -1015.82 0 -0.43 0 0 3.88 -1378.2c0,-845.5 -493.77,-1007.84 -980.76,-1007.84 -493.84,0 -872.56,223.23 -1251.35,493.77 -236.75,169.14 -426.12,304.4 -426.12,507.28 0,169.13 216.38,284.11 459.91,284.11 81.17,0 155.56,-13.51 236.75,-40.59 -87.91,-784.61 196.15,-1122.81 669.62,-1122.81 351.78,0 689.93,236.73 689.93,771.1 0,216.45 -94.69,365.22 -284.06,500.48 -142.06,94.69 -317.91,189.44 -547.86,290.91 -750.81,331.41 -1197.26,439.66 -1197.26,974.03 0,527.56 500.55,899.57 1068.71,899.57 507.27,0 804.89,-304.33 953.74,-744.01l0 656.06 604.87 0z"/>
   <polygon class="fil0" points="17404.98,15181.23 16238.56,17758.08 16284.55,17805.65 15138.96,15181.23 14428.31,15181.23 14458.05,15248.84 14458.24,15248.84 15953.12,18644.4 15993.71,18644.4 17560.44,15181.23 "/>
   <path class="fil0" d="M11174.79 14450.71c0,227.48 -184.39,411.82 -411.8,411.82 -227.47,0 -411.88,-184.34 -411.88,-411.82 0,-227.47 184.41,-411.81 411.88,-411.81 227.41,0 411.8,184.34 411.8,411.81z"/>
  </g>
 </g>
</svg>
