<?xml version="1.0"?>
<svg xmlns="http://www.w3.org/2000/svg" xmlns:xlink="http://www.w3.org/1999/xlink" xmlns:svgjs="http://svgjs.com/svgjs" version="1.1" width="512" height="512" x="0" y="0" viewBox="0 0 512 512" style="enable-background:new 0 0 512 512" xml:space="preserve" class=""><g>
<g xmlns="http://www.w3.org/2000/svg">
	<path d="M276,472c5.52,0,10-4.48,10-10s-4.48-10-10-10s-10,4.48-10,10S270.48,472,276,472z" fill="#ffffff" data-original="#000000" style="" class=""/>
	<path d="M439,432c-5.017,0-12.016,0.564-18.825,1.999C409.185,408.842,384.069,392,356,392c-11.778,0-23.23,2.945-33.396,8.469   c-8.162-25.073-30.177-43.887-56.604-47.732v-57.683l50.195-28.979c37.798,14.17,85.948,19.665,120.785-0.454   c51.581-29.775,61.149-106.209,61.532-109.448c0.518-4.396-1.915-8.609-5.98-10.358c-2.995-1.288-73.968-31.221-125.55-1.434   c-44.579,25.733-57.776,86.307-60.784,104.373L266,271.96v-57.129c14.138-11.636,60-53.353,60-104.831   c0-59.562-61.405-106.064-64.02-108.015c-3.547-2.646-8.414-2.646-11.961,0C247.405,3.935,186,50.438,186,110   c0,51.478,45.862,93.195,60,104.831v57.129l-40.197-23.207c-3.009-18.066-16.206-78.64-60.784-104.373   c-51.58-29.785-122.553,0.146-125.55,1.434c-4.065,1.749-6.498,5.963-5.98,10.358c0.383,3.239,9.951,79.673,61.53,109.448   c34.825,20.11,82.956,14.634,120.787,0.454L246,295.053v57.683c-26.427,3.845-48.442,22.659-56.604,47.732   C179.23,394.945,167.778,392,156,392c-28.069,0-53.185,16.842-64.175,41.999C85.016,432.564,78.017,432,73,432   c-39.57,0-73,32.056-73,70c0,5.522,4.478,10,10,10h492c5.522,0,10-4.478,10-10C512,464.055,478.57,432,439,432z M376.981,161.7   c34.322-19.822,82.339-6.459,100.401-0.224c-3.604,18.761-15.976,66.949-50.401,86.823c-0.001,0-0.001,0-0.002,0   c-27.867,16.094-64.763,10.311-87.323,4.229l67.324-38.869c4.783-2.762,6.422-8.877,3.66-13.66   c-2.762-4.781-8.876-6.421-13.66-3.66l-67.358,38.889C335.604,212.668,349.016,177.843,376.981,161.7z M85.019,248.3   c-34.322-19.814-46.761-68.081-50.392-86.841c18.051-6.259,65.967-19.641,100.392,0.241c0.001,0,0.001,0,0.002,0   c27.867,16.087,41.307,50.929,47.321,73.507L115.02,196.34c-4.784-2.762-10.898-1.122-13.66,3.66   c-2.762,4.783-1.123,10.898,3.66,13.66l67.361,38.89C149.853,258.651,112.988,264.45,85.019,248.3z M206,110   c0-39.623,35.561-74.521,50-87.056c14.445,12.54,50,47.436,50,87.056c0,32.179-23.453,61.24-40,77.739V80c0-5.522-4.478-10-10-10   s-10,4.478-10,10v107.738C229.451,171.238,206,142.177,206,110z M73,452c7.295,0,16.302,1.471,21.416,3.497   c2.645,1.048,5.612,0.921,8.157-0.354c2.544-1.272,4.427-3.569,5.175-6.314C113.657,427.144,133.499,412,156,412   c12.396,0,24.283,4.565,33.472,12.854c2.832,2.556,6.872,3.278,10.414,1.859c3.542-1.418,5.969-4.728,6.256-8.531   C208.096,392.286,229.997,372,256,372s47.904,20.286,49.858,46.183c0.287,3.804,2.714,7.113,6.256,8.531   c3.543,1.418,7.582,0.696,10.414-1.859C331.717,416.565,343.604,412,356,412c22.501,0,42.343,15.145,48.252,36.829   c0.748,2.745,2.631,5.042,5.175,6.314c2.547,1.274,5.513,1.401,8.157,0.354C422.698,453.47,431.705,452,439,452   c24.628,0,46.614,17.78,51.828,40H21.172C26.386,469.78,48.372,452,73,452z" fill="#ffffff" data-original="#000000" style="" class=""/>
	<path d="M316,472h60c5.522,0,10-4.478,10-10s-4.478-10-10-10h-60c-5.522,0-10,4.478-10,10S310.478,472,316,472z" fill="#ffffff" data-original="#000000" style="" class=""/>
</g>















</g></svg>
