<?xml version="1.0"?>
<svg xmlns="http://www.w3.org/2000/svg" xmlns:xlink="http://www.w3.org/1999/xlink" xmlns:svgjs="http://svgjs.com/svgjs" version="1.1" width="512" height="512" x="0" y="0" viewBox="0 0 512 512.00069" style="enable-background:new 0 0 512 512" xml:space="preserve" class=""><g><path xmlns="http://www.w3.org/2000/svg" d="m326.980469 120.945312c1.492187 3.917969 5.875 5.882813 9.789062 4.390626 3.914063-1.492188 5.878907-5.875 4.386719-9.789063-28.40625-74.585937-132.035156-78.863281-167.097656-7.90625-29.902344 60.539063 14.097656 131.703125 81.871094 131.703125 50.78125 0 91.242187-41.378906 91.242187-91.433594 0-4.191406-3.394531-7.585937-7.585937-7.585937-4.011719 0-7.582032 3.167969-7.582032 7.738281 0 31.191406-19.589844 61.203125-51.730468 72.085938-64.3125 21.78125-122.476563-45.324219-92.613282-105.789063 29.386719-59.472656 115.808594-55.148437 139.320313 6.585937zm0 0" fill="#ffffff" data-original="#000000" style="" class=""/><path xmlns="http://www.w3.org/2000/svg" d="m182.859375 360.085938h43.996094c4.191406 0 7.585937-3.394532 7.585937-7.582032v-67.019531c0-3.589844-2.515625-6.683594-6.027344-7.421875-61.074218-12.828125-105.40625-67.503906-105.40625-130.003906 0-54.726563 32.84375-103.1875 83.671876-123.457032 3.890624-1.550781 5.785156-5.960937 4.234374-9.855468-1.550781-3.886719-5.964843-5.785156-9.855468-4.234375-93.496094 37.285156-122.765625 154.570312-59.644532 231.417969 20.03125 24.390624 47.496094 41.835937 77.859376 49.578124v53.410157h-36.414063c-19.292969 0-34.984375 15.695312-34.984375 34.988281v3.207031c0 19.8125 16.425781 31.917969 22.40625 31.917969 7.886719-.003906 10.542969-10.652344 3.507812-14.316406-6.628906-3.449219-10.746093-10.191406-10.746093-17.597656v-3.210938c0-10.929688 8.890625-19.820312 19.816406-19.820312zm0 0" fill="#ffffff" data-original="#000000" style="" class=""/><path xmlns="http://www.w3.org/2000/svg" d="m328.867188 344.917969h-36.414063v-53.410157c64.804687-16.523437 111.433594-75.148437 111.433594-143.449218 0-90.816406-81.605469-160.871094-172.066407-146.078125-4.132812.671875-6.9375 4.570312-6.261718 8.707031.675781 4.132812 4.566406 6.9375 8.710937 6.261719 81.347657-13.289063 154.449219 49.726562 154.449219 131.109375 0 62.5-44.332031 117.171875-105.410156 130.003906-3.511719.734375-6.027344 3.832031-6.027344 7.421875v67.019531c0 4.1875 3.394531 7.582032 7.585938 7.582032h44c10.925781 0 19.8125 8.890624 19.8125 19.816406v3.210937c0 10.925781-8.886719 19.816407-19.8125 19.816407h-44c-4.191407 0-7.585938 3.394531-7.585938 7.585937v63.050781c0 12.828125-9.609375 23.265625-21.421875 23.265625-11.808594 0-21.417969-10.4375-21.417969-23.265625v-63.050781c0-4.191406-3.394531-7.585937-7.585937-7.585937h-26.730469c-4.191406 0-7.585938 3.394531-7.585938 7.585937 0 4.1875 3.394532 7.582031 7.585938 7.582031h19.144531v55.46875c0 21.191406 16.414063 38.433594 36.589844 38.433594 20.179687 0 36.59375-17.242188 36.59375-38.433594v-55.46875h36.414063c19.289062 0 34.984374-15.695312 34.984374-34.984375v-3.210937c0-19.289063-15.695312-34.984375-34.984374-34.984375zm0 0" fill="#ffffff" data-original="#000000" style="" class=""/><path xmlns="http://www.w3.org/2000/svg" d="m430.136719 71.941406h17.082031v17.082032c0 4.191406 3.394531 7.585937 7.585938 7.585937 4.191406 0 7.585937-3.394531 7.585937-7.585937v-17.082032h17.082031c4.1875 0 7.585938-3.394531 7.585938-7.585937 0-4.1875-3.398438-7.582031-7.585938-7.582031h-17.082031v-17.082032c0-4.191406-3.394531-7.585937-7.585937-7.585937-4.191407 0-7.585938 3.394531-7.585938 7.585937v17.082032h-17.082031c-4.191407 0-7.585938 3.394531-7.585938 7.582031 0 4.191406 3.394531 7.585937 7.585938 7.585937zm0 0" fill="#ffffff" data-original="#000000" style="" class=""/><path xmlns="http://www.w3.org/2000/svg" d="m424.328125 307.171875h-17.085937v-17.082031c0-4.191406-3.394532-7.585938-7.582032-7.585938-4.191406 0-7.585937 3.394532-7.585937 7.585938v17.082031h-17.082031c-4.191407 0-7.585938 3.394531-7.585938 7.585937 0 4.1875 3.394531 7.582032 7.585938 7.582032h17.082031v17.085937c0 4.1875 3.394531 7.582031 7.585937 7.582031 4.1875 0 7.582032-3.394531 7.582032-7.582031v-17.085937h17.085937c4.1875 0 7.582031-3.394532 7.582031-7.582032 0-4.191406-3.394531-7.585937-7.582031-7.585937zm0 0" fill="#ffffff" data-original="#000000" style="" class=""/><path xmlns="http://www.w3.org/2000/svg" d="m504.140625 424.332031h-17.085937v-17.085937c0-4.1875-3.394532-7.582032-7.585938-7.582032-4.1875 0-7.582031 3.394532-7.582031 7.582032v17.085937h-17.085938c-4.1875 0-7.582031 3.394531-7.582031 7.582031 0 4.191407 3.394531 7.585938 7.582031 7.585938h17.085938v17.082031c0 4.191407 3.394531 7.585938 7.582031 7.585938 4.191406 0 7.585938-3.394531 7.585938-7.585938v-17.082031h17.085937c4.1875 0 7.582031-3.394531 7.582031-7.585938 0-4.1875-3.394531-7.582031-7.582031-7.582031zm0 0" fill="#ffffff" data-original="#000000" style="" class=""/><path xmlns="http://www.w3.org/2000/svg" d="m97.484375 199.890625h-17.082031v-17.082031c0-4.191406-3.394532-7.585938-7.585938-7.585938-4.1875 0-7.582031 3.394532-7.582031 7.585938v17.082031h-17.085937c-4.191407 0-7.585938 3.394531-7.585938 7.585937 0 4.1875 3.394531 7.582032 7.585938 7.582032h17.085937v17.085937c0 4.191407 3.394531 7.585938 7.582031 7.585938 4.191406 0 7.585938-3.394531 7.585938-7.585938v-17.085937h17.082031c4.191406 0 7.585937-3.394532 7.585937-7.582032 0-4.191406-3.398437-7.585937-7.585937-7.585937zm0 0" fill="#ffffff" data-original="#000000" style="" class=""/><path xmlns="http://www.w3.org/2000/svg" d="m75.023438 438.550781h-17.082032v-17.085937c0-4.191406-3.394531-7.585938-7.585937-7.585938-4.1875 0-7.582031 3.394532-7.582031 7.585938v17.085937h-17.085938c-4.1875 0-7.582031 3.394531-7.582031 7.582031 0 4.191407 3.394531 7.585938 7.582031 7.585938h17.085938v17.082031c0 4.191407 3.394531 7.585938 7.582031 7.585938 4.191406 0 7.585937-3.394531 7.585937-7.585938v-17.082031h17.085938c4.1875 0 7.582031-3.394531 7.582031-7.585938 0-4.1875-3.394531-7.582031-7.585937-7.582031zm0 0" fill="#ffffff" data-original="#000000" style="" class=""/><path xmlns="http://www.w3.org/2000/svg" d="m24.667969 73.992188c0 4.1875 3.394531 7.582031 7.585937 7.582031 4.1875 0 7.582032-3.394531 7.582032-7.582031v-17.085938h17.085937c4.1875 0 7.582031-3.394531 7.582031-7.582031 0-4.191407-3.394531-7.585938-7.582031-7.585938h-17.085937v-17.082031c0-4.191406-3.394532-7.585938-7.582032-7.585938-4.191406 0-7.585937 3.394532-7.585937 7.585938v17.082031h-17.082031c-4.191407 0-7.585938 3.394531-7.585938 7.585938 0 4.1875 3.394531 7.582031 7.585938 7.582031h17.082031zm0 0" fill="#ffffff" data-original="#000000" style="" class=""/></g></svg>
