<?xml version="1.0" encoding="UTF-8"?>
<!DOCTYPE svg PUBLIC "-//W3C//DTD SVG 1.1//EN" "http://www.w3.org/Graphics/SVG/1.1/DTD/svg11.dtd">
<!-- Creator: CorelDRAW 2020 (64-Bit) -->
<svg xmlns="http://www.w3.org/2000/svg" xml:space="preserve" width="184mm" height="186mm" version="1.1" style="shape-rendering:geometricPrecision; text-rendering:geometricPrecision; image-rendering:optimizeQuality; fill-rule:evenodd; clip-rule:evenodd"
viewBox="0 0 18400 18600"
 xmlns:xlink="http://www.w3.org/1999/xlink"
 xmlns:xodm="http://www.corel.com/coreldraw/odm/2003">
 <defs>
  <style type="text/css">
   <![CDATA[
    .fil4 {fill:#9D9E9E;fill-rule:nonzero}
    .fil0 {fill:#F7A81E;fill-rule:nonzero}
    .fil3 {fill:#7B81BD;fill-rule:nonzero}
    .fil1 {fill:#44C0F0;fill-rule:nonzero}
    .fil2 {fill:#3093D0;fill-rule:nonzero}
   ]]>
  </style>
 </defs>
 <g id="Layer_x0020_1">
  <metadata id="CorelCorpID_0Corel-Layer"/>
  <g id="_2624498032064">
   <path class="fil0" d="M13107.67 6573.8c100.26,116.49 344.88,404.51 450.15,562.35 125.15,187.64 257.62,400.45 345.66,555.55 49.67,87.31 172.61,388.94 202.43,496.49 51.77,186.98 79.27,364.37 87.99,531.86 126.43,-221.64 238.52,-452.53 335.09,-691.35 -1.2,-111.14 -7.52,-226.24 -21.12,-346.56 -11.87,-105.21 -89,-469.77 -117.86,-557.27 -64.84,-196.47 -165.03,-468.46 -261.42,-709.73 -78.74,-196.96 -291.75,-601 -355.08,-720.16 -363.24,-682.95 -779.93,-1924.97 39.36,-3162.92l-990.9 0 0 3634.35c107.06,199.34 218.36,329.07 285.7,407.39z"/>
   <path class="fil0" d="M14701.11 4208.17c-154.42,-511.4 -377.85,-992.69 -659.85,-1433.19 -635.54,1015.85 -370.41,2033.35 13.78,2759.61 56.65,-423.79 217.51,-962.58 646.07,-1326.42z"/>
   <path class="fil0" d="M13814.15 9301.6c73.55,-288.98 88.65,-633.56 -20.27,-1027.05 -21.94,-79.09 -135.99,-359.72 -171.9,-422.89 -84.59,-148.82 -212.34,-354.11 -333.55,-535.85 -97.93,-146.91 -350.95,-443.42 -426.17,-530.8 -13.77,-16 -26.95,-32.21 -40.31,-48.44l0 3602.47c372.25,-303.02 705.67,-651.76 992.2,-1037.44z"/>
   <path class="fil0" d="M14440.72 5235.9c-112.79,405.48 -93.11,791.99 -85.54,891.18 29.17,62.21 54.93,120.06 74.07,167.9 98.66,247 201.44,526.08 268.24,728.41 16.94,51.42 44.01,163.83 69.42,281.82 117.28,-457.78 179.97,-937.46 179.97,-1431.81 0,-450.33 -52.43,-888.26 -150.26,-1308.75 -160.33,173.39 -279.68,397.06 -355.9,671.25z"/>
   <path class="fil1" d="M11413.16 9164.8c-89.53,-98.23 -182.16,-174.11 -282.97,-231.66 -301.04,-172.44 -665.18,-188 -1081.92,-46.35l-127.29 43.42c-257.91,87.87 -504.49,171.78 -727.74,235.66 -106.94,412.88 -308.14,777.5 -603.14,1093.97 210.19,-60.24 449.37,-139.98 707.7,-227.96l127.53 -43.42c508.77,-172.92 961.98,-148.76 1346.98,71.8 255.95,146.39 468.71,373.7 632.38,675.56l2.26 4.42 144.58 287.8 0 -1672.72 -138.37 -190.52z"/>
   <path class="fil1" d="M9723.7 7728.49c-164.7,62.93 -332.23,126.57 -496.27,176.07 37.58,166.24 57.5,336.23 57.5,510.53 0,135.02 -8.64,265.65 -24.33,392.69 173.86,-54.03 361.52,-117.84 555.91,-184.05l127.39 -43.49c508.91,-172.91 962.05,-148.63 1347.12,71.81 92.14,52.66 178.15,116.61 260.53,192.96l0 -1246.9 -328.7 -118.05c-483.38,-139.92 -1022.95,66.33 -1499.15,248.43z"/>
   <path class="fil1" d="M11118.8 10887.94c-134.32,-247 -304.97,-430.89 -507.35,-546.65 -300.97,-172.44 -665.06,-188.02 -1081.8,-46.3l-127.47 43.44c-468.71,159.61 -851.44,285.58 -1156.19,334.67l-172.56 25.05c-330.96,219.92 -700.88,366.7 -1109.95,440.19 -20.88,3.76 -24.51,32.38 -4.95,40.62 686.65,289.4 1441.12,449.72 2233.04,449.72 741.34,0 1449.82,-140.4 2100.61,-395.69l-173.38 -345.05z"/>
   <path class="fil1" d="M8368.93 6585.99c238.34,150.36 442.64,377.5 612.81,681.34 60.01,107.06 109.92,216.27 152.1,327.22 153.59,-46.47 315.23,-107.79 474.25,-168.51 525.42,-200.94 1120.94,-428.67 1710.54,-255.33l8.99 2.97 223.93 80.35 0 -744.63 -3186.19 0 -40.32 0 -94.01 0c13.47,6.51 26.9,13.24 40.21,20.22 23.02,12.11 87.92,50.22 97.69,56.37z"/>
   <path class="fil2" d="M5234.26 8770.62c214.73,-268.36 181.43,-620.39 181.08,-623.91l-0.9 -9.25c-6.13,-73.29 -77.96,-699.7 -749.04,-699.7 -545.33,0 -614.4,433.33 -622.75,520.18 -6.16,63.88 -10.93,278.77 183.7,360.44 2.57,1.01 8.23,3.7 10.68,4.83 57.27,27.49 170.11,60.9 282.9,-24.28 49.45,-37.33 71.33,-145.84 71.76,-182.7 0.94,-88.75 73.19,-161.16 161.94,-161.16l0.54 0c89.05,0.3 161.04,71.4 161.33,160.38 0,2.88 -1.37,291.56 -200.41,441.86 -167.06,126.1 -378.46,153.59 -573.79,77.02 92.1,168.08 192.24,331.15 300.15,488.56 11.37,-0.61 18.95,-1.2 23.78,-1.67 354.3,-37.71 612.99,-155.69 769.03,-350.6z"/>
   <path class="fil2" d="M7429.83 6942.52c-404.28,-336.82 -931.2,-505.32 -1580.86,-505.32 -211.8,0 -416.33,16.94 -613.59,50.57l0 -1133.33c120.24,14.44 223.8,21.66 310.4,21.66 577.5,0 1077.93,-161.16 1501.41,-483.63 452.3,-346.48 678.54,-784.34 678.54,-1313.75 0,-408.99 -140.71,-761.52 -422.23,-1057.54 -281.53,-295.9 -626.89,-443.89 -1035.88,-443.89 -558.65,0 -1141.1,144.76 -1747.03,433.63 -381.57,529.19 -675.32,1125.71 -860.29,1768.4 1991.17,5.43 2311.89,-4.13 2354.67,-8.71 268.1,-28.52 462.91,-116.61 579.1,-261.85 158.83,-198.51 134.74,-460.88 134.5,-463.52l-0.71 -7.27c-4.79,-54.88 -58.59,-516.95 -552.27,-516.95 -387.1,0 -444.79,287.79 -453.26,376.01 -5.19,54.82 -3.28,188.96 127.65,249.02 29.17,13.37 130.02,52.73 198.26,-5.72 13.6,-11.63 55,-47.12 29.12,-120.31 -29.83,-84.29 14.37,-176.79 98.65,-206.61 84.27,-29.88 176.79,14.25 206.61,98.58 48.31,136.53 41.21,332.83 -123.59,474.14 -214.19,183.65 -470.66,87.92 -544.16,54.21 -218.41,-100.26 -339.14,-320.23 -314.87,-574.15 31.93,-333.01 284.1,-669 775.59,-669 638.52,0 851.38,530.98 874.77,811.74l0.3 3.34c4.34,45.21 30.89,405.58 -203.75,698.81 -172.26,215.2 -440.55,343.56 -797.59,381.5 -75.64,8.1 -527.75,12.16 -1348.01,12.16 -318.64,0 -693.75,-0.64 -1123.08,-1.84 -83.27,369.21 -130.92,751.84 -139.39,1144.19l668.98 0c89.43,0 161.95,72.48 161.95,161.94 0,89.4 -72.52,161.89 -161.95,161.89l-667.79 0c19.86,589.53 128.24,1156.65 312.67,1688.27 98.06,-342.43 397,-645.24 912.7,-645.24 781.79,0 1042.8,650.62 1071.61,994.65l0.47 5.26c0.07,0.29 9.08,80.87 -1.18,202.01l1371.86 0c89.41,0 161.94,72.47 161.94,161.89 0,89.46 -72.53,161.93 -161.94,161.93l-1431.21 0c-2.76,0 -5.31,-0.71 -8.06,-0.83 -38.05,110.47 -95.55,226.17 -181.86,334.08 -185.56,231.97 -463.46,382.09 -827.36,447.52 46.53,59.3 94.01,117.75 142.68,175.13 438.28,309.33 938.36,465.3 1501.37,465.3 452.29,0 856.5,-151.63 1212.71,-454.75 380.07,-317.67 570.23,-700.24 570.23,-1147.77 0,-649.67 -219.03,-1154.92 -656.83,-1515.85z"/>
   <path class="fil3" d="M10275.8 4594.55c0,61.96 -50.22,112.19 -112.13,112.19 -61.97,0 -112.2,-50.23 -112.2,-112.19 0,-61.97 50.23,-112.2 112.2,-112.2 61.91,0 112.13,50.23 112.13,112.2zm302.88 -1415.1c167.25,0 302.9,135.63 302.9,302.88 0,167.3 -135.65,302.88 -302.9,302.88 -167.3,0 -302.88,-135.58 -302.88,-302.88 0,-167.25 135.58,-302.88 302.88,-302.88zm-1291.45 -208.17c-61.97,0 -112.2,-50.23 -112.2,-112.2 0,-61.91 50.23,-112.13 112.2,-112.13 61.97,0 112.2,50.22 112.2,112.13 0,61.97 -50.23,112.2 -112.2,112.2zm-472.87 -1781.94c-105.29,0 -190.63,-85.35 -190.63,-190.63 0,-105.27 85.34,-190.62 190.63,-190.62 105.27,0 190.63,85.35 190.63,190.62 0,105.28 -85.36,190.63 -190.63,190.63zm1459.48 187.77l2510.03 0c-984.58,-787.69 -2233.34,-1259.02 -3592.25,-1259.02 -1083.36,0 -2096.68,299.55 -2962.03,820.02 24.76,-0.53 49.56,-1.37 74.14,-1.37 745.86,0 1373.88,233.51 1884.03,700.19 529.31,476.46 794.02,1082.82 794.02,1819.09 0,690.34 -295.43,1295.99 -885.98,1816.82 -32.21,28.46 -11.93,81.6 31.01,81.6l3424.72 0 0 -2822.4 -1277.69 0 0 -1154.93z"/>
   <path class="fil4" d="M3321.57 18365.14l-162.3 -1007.84 46.58 0 701.81 941.21c66.63,113.26 199.81,133.25 399.62,133.25 386.27,0 812.51,-199.82 812.51,-679.37 0,-412.86 -313.02,-619.37 -672.7,-712.6l-406.24 -106.52c-499.48,-126.57 -892.43,-452.9 -892.43,-965.73 0,-606.07 592.71,-965.68 1252.09,-965.68 293.04,0 579.41,46.59 872.45,133.19l171.85 881.27 -46.6 0 -731.32 -854.66c-53.26,-79.87 -173.15,-93.23 -352.98,-93.23 -319.65,0 -705.98,133.18 -705.98,586.09 0,379.64 266.45,606.06 572.78,685.99l412.94 106.51c566.1,146.56 1045.6,446.23 1045.6,1012.38 0,599.39 -519.46,1032.24 -1351.95,1032.24 -326.39,0 -679.37,-39.97 -965.73,-126.5z"/>
   <path class="fil4" d="M7635.44 18185.31c219.8,0 439.53,-79.92 559.42,-186.46l26.67 33.28c-199.82,213.12 -566.1,426.24 -952.37,426.24 -366.29,0 -785.9,-93.23 -785.9,-672.64l0 -2351.01 -712.59 0 0 -26.6 1285.37 -1065.63 26.61 0 0 719.33 1122.78 0 -266.38 372.9 -856.4 0 0 2244.43c0,392.95 259.75,506.16 552.79,506.16z"/>
   <path class="fil4" d="M11832.92 18185.31c219.8,0 439.53,-79.92 559.42,-186.46l26.67 33.28c-199.82,213.12 -566.1,426.24 -952.37,426.24 -366.29,0 -785.9,-93.23 -785.9,-672.64l0 -2351.01 -712.61 0 0 -26.6 1285.39 -1065.63 26.59 0 0 719.33 1122.78 0 -266.37 372.9 -856.41 0 0 2244.43c0,392.95 259.77,506.16 552.81,506.16z"/>
   <path class="fil4" d="M1975.51 17466.05c-6.68,479.5 -333,765.86 -632.67,765.86 -339.67,0 -646.02,-279.69 -646.02,-732.57 0,-506.17 559.42,-765.92 985.64,-1045.67 119.9,-79.86 219.8,-159.79 306.35,-246.39l-13.3 1258.77zm602.24 939.01l0 -66.57 -2.85 0 2.85 -1000.2 0 -0.42 0 0 3.83 -1357c0,-832.5 -486.18,-992.35 -965.68,-992.35 -486.23,0 -859.14,219.8 -1232.11,486.18 -233.09,166.54 -419.54,299.72 -419.54,499.49 0,166.52 213.05,279.73 452.83,279.73 79.92,0 153.17,-13.3 233.09,-39.97 -86.55,-772.54 193.14,-1105.53 659.33,-1105.53 346.37,0 679.31,233.08 679.31,759.23 0,213.12 -93.23,359.61 -279.68,492.79 -139.86,93.23 -313.01,186.53 -539.44,286.43 -739.25,326.32 -1178.85,432.9 -1178.85,959.05 0,519.45 492.86,885.74 1052.28,885.74 499.48,0 792.53,-299.65 939.08,-732.57l0 645.97 595.55 0z"/>
   <polygon class="fil4" points="9258.74,18318.53 9258.74,18385.09 8659.35,18385.09 8659.35,18318.53 8659.35,17626.16 8659.35,15001.85 9778.26,15414.78 9778.26,15441.45 9258.74,15721.11 9258.74,18048.28 "/>
   <path class="fil4" d="M17815.42 17466.05c-6.68,479.5 -333.01,765.86 -632.66,765.86 -339.69,0 -646.04,-279.69 -646.04,-732.57 0,-506.17 559.42,-765.92 985.66,-1045.67 119.89,-79.86 219.8,-159.79 306.35,-246.39l-13.31 1258.77zm602.25 939.01l0 -66.57 -2.86 0 2.86 -1000.2 0 -0.42 0 0 3.82 -1357c0,-832.5 -486.18,-992.35 -965.68,-992.35 -486.24,0 -859.14,219.8 -1232.1,486.18 -233.11,166.54 -419.56,299.72 -419.56,499.49 0,166.52 213.05,279.73 452.83,279.73 79.92,0 153.17,-13.3 233.11,-39.97 -86.55,-772.54 193.13,-1105.53 659.33,-1105.53 346.36,0 679.31,233.08 679.31,759.23 0,213.12 -93.23,359.61 -279.69,492.79 -139.87,93.23 -313.02,186.53 -539.43,286.43 -739.27,326.32 -1178.85,432.9 -1178.85,959.05 0,519.45 492.85,885.74 1052.28,885.74 499.46,0 792.51,-299.65 939.06,-732.57l0 645.97 595.57 0z"/>
   <polygon class="fil4" points="15506.3,15061.79 14357.82,17599.01 14403.1,17645.84 13275.12,15061.79 12575.4,15061.79 12604.69,15128.35 12604.87,15128.35 14076.76,18471.69 14116.73,18471.69 15659.37,15061.79 "/>
   <path class="fil4" d="M9371.92 14342.5c0,223.98 -181.55,405.48 -405.46,405.48 -223.98,0 -405.55,-181.5 -405.55,-405.48 0,-223.97 181.57,-405.48 405.55,-405.48 223.91,0 405.46,181.51 405.46,405.48z"/>
  </g>
 </g>
</svg>
