<?xml version="1.0" encoding="UTF-8"?>
<!DOCTYPE svg PUBLIC "-//W3C//DTD SVG 1.1//EN" "http://www.w3.org/Graphics/SVG/1.1/DTD/svg11.dtd">
<!-- Creator: CorelDRAW 2020 (64-Bit) -->
<svg xmlns="http://www.w3.org/2000/svg" xml:space="preserve" width="65px" height="65px" version="1.1" style="shape-rendering:geometricPrecision; text-rendering:geometricPrecision; image-rendering:optimizeQuality; fill-rule:evenodd; clip-rule:evenodd"
viewBox="0 0 65 65"
 xmlns:xlink="http://www.w3.org/1999/xlink"
 xmlns:xodm="http://www.corel.com/coreldraw/odm/2003">
 <defs>
  <style type="text/css">
   <![CDATA[
    .fil0 {fill:#F7A81E;fill-rule:nonzero}
    .fil3 {fill:#7B81BD;fill-rule:nonzero}
    .fil1 {fill:#44C0F0;fill-rule:nonzero}
    .fil2 {fill:#3093D0;fill-rule:nonzero}
   ]]>
  </style>
 </defs>
 <g id="Layer_x0020_1">
  <metadata id="CorelCorpID_0Corel-Layer"/>
  <g id="_2624492465712">
   <path class="fil0" d="M54.6 36.47c0.56,0.66 1.95,2.28 2.54,3.18 0.71,1.06 1.45,2.26 1.95,3.13 0.28,0.5 0.98,2.2 1.15,2.81 0.29,1.05 0.44,2.05 0.49,3 0.72,-1.25 1.35,-2.56 1.9,-3.9 -0.01,-0.63 -0.05,-1.28 -0.12,-1.96 -0.07,-0.6 -0.51,-2.65 -0.67,-3.15 -0.37,-1.11 -0.93,-2.64 -1.48,-4.01 -0.44,-1.11 -1.64,-3.39 -2,-4.06 -2.05,-3.86 -4.41,-10.87 0.22,-17.86l-5.6 0 0 20.52c0.61,1.13 1.24,1.86 1.62,2.3z"/>
   <path class="fil0" d="M63.6 23.11c-0.87,-2.89 -2.14,-5.6 -3.73,-8.09 -3.59,5.73 -2.09,11.48 0.08,15.58 0.32,-2.39 1.23,-5.43 3.65,-7.49z"/>
   <path class="fil0" d="M58.59 51.87c0.41,-1.63 0.5,-3.57 -0.12,-5.8 -0.12,-0.44 -0.77,-2.03 -0.97,-2.38 -0.48,-0.84 -1.2,-2 -1.88,-3.03 -0.56,-0.83 -1.98,-2.5 -2.41,-3 -0.08,-0.09 -0.15,-0.18 -0.23,-0.27l0 20.34c2.11,-1.71 3.99,-3.68 5.61,-5.86z"/>
   <path class="fil0" d="M62.13 28.91c-0.64,2.29 -0.53,4.48 -0.49,5.04 0.17,0.35 0.31,0.68 0.42,0.95 0.56,1.39 1.14,2.97 1.52,4.11 0.09,0.29 0.25,0.92 0.39,1.59 0.66,-2.58 1.02,-5.29 1.02,-8.09 0,-2.54 -0.3,-5.01 -0.85,-7.39 -0.91,0.98 -1.58,2.25 -2.01,3.79z"/>
   <path class="fil1" d="M45.03 51.1c-0.51,-0.55 -1.03,-0.98 -1.6,-1.31 -1.7,-0.97 -3.76,-1.06 -6.11,-0.26l-0.72 0.25c-1.46,0.49 -2.85,0.97 -4.11,1.33 -0.61,2.33 -1.74,4.39 -3.41,6.17 1.19,-0.34 2.54,-0.79 4,-1.28l0.72 -0.25c2.87,-0.97 5.43,-0.84 7.61,0.41 1.44,0.82 2.64,2.11 3.57,3.81l0.01 0.03 0.82 1.62 0 -9.44 -0.78 -1.08z"/>
   <path class="fil1" d="M35.48 42.99c-0.93,0.36 -1.87,0.72 -2.8,0.99 0.21,0.94 0.33,1.9 0.33,2.89 0,0.76 -0.05,1.5 -0.14,2.22 0.98,-0.31 2.04,-0.67 3.14,-1.04l0.72 -0.25c2.87,-0.98 5.43,-0.84 7.61,0.41 0.52,0.29 1,0.65 1.47,1.09l0 -7.05 -1.86 -0.66c-2.73,-0.79 -5.78,0.37 -8.47,1.4z"/>
   <path class="fil1" d="M43.36 60.83c-0.76,-1.39 -1.72,-2.43 -2.86,-3.09 -1.7,-0.97 -3.76,-1.06 -6.11,-0.26l-0.72 0.25c-2.65,0.9 -4.81,1.61 -6.53,1.89l-0.98 0.14c-1.87,1.24 -3.96,2.07 -6.27,2.49 -0.11,0.02 -0.14,0.18 -0.02,0.23 3.87,1.63 8.14,2.53 12.61,2.53 4.19,0 8.19,-0.79 11.86,-2.23l-0.98 -1.95z"/>
   <path class="fil1" d="M27.83 36.54c1.35,0.85 2.5,2.13 3.46,3.85 0.34,0.6 0.62,1.22 0.86,1.84 0.87,-0.26 1.78,-0.6 2.68,-0.95 2.97,-1.13 6.33,-2.42 9.66,-1.44l0.05 0.02 1.27 0.45 0 -4.2 -18 0 -0.23 0 -0.53 0c0.08,0.03 0.15,0.07 0.23,0.11 0.13,0.07 0.5,0.28 0.55,0.32z"/>
   <path class="fil2" d="M10.13 48.88c1.21,-1.52 1.02,-3.51 1.02,-3.53l-0.01 -0.05c-0.03,-0.41 -0.44,-3.95 -4.23,-3.95 -3.08,0 -3.47,2.45 -3.51,2.94 -0.04,0.36 -0.07,1.57 1.03,2.03 0.02,0.01 0.05,0.02 0.06,0.03 0.33,0.15 0.96,0.34 1.6,-0.14 0.28,-0.21 0.4,-0.82 0.41,-1.03 0,-0.5 0.41,-0.91 0.91,-0.91l0 0c0.51,0 0.91,0.4 0.92,0.91 0,0.01 -0.01,1.64 -1.14,2.49 -0.94,0.71 -2.13,0.87 -3.24,0.44 0.52,0.94 1.09,1.87 1.7,2.75 0.06,0 0.11,0 0.13,0 2,-0.22 3.46,-0.88 4.35,-1.98z"/>
   <path class="fil2" d="M22.53 38.55c-2.29,-1.9 -5.26,-2.85 -8.93,-2.85 -1.2,0 -2.35,0.09 -3.47,0.28l0 -6.4c0.68,0.09 1.27,0.13 1.76,0.13 3.26,0 6.08,-0.91 8.48,-2.73 2.55,-1.96 3.83,-4.43 3.83,-7.42 0,-2.31 -0.8,-4.3 -2.39,-5.98 -1.59,-1.67 -3.54,-2.5 -5.85,-2.5 -3.15,0 -6.44,0.82 -9.86,2.45 -2.16,2.99 -3.82,6.35 -4.86,9.98 11.24,0.03 13.05,-0.02 13.3,-0.05 1.51,-0.16 2.61,-0.65 3.27,-1.47 0.89,-1.13 0.76,-2.61 0.76,-2.62l-0.01 -0.04c-0.02,-0.31 -0.33,-2.92 -3.12,-2.92 -2.18,0 -2.51,1.62 -2.56,2.12 -0.03,0.31 -0.02,1.07 0.72,1.41 0.17,0.07 0.74,0.29 1.12,-0.04 0.08,-0.06 0.31,-0.26 0.17,-0.67 -0.17,-0.48 0.08,-1 0.56,-1.17 0.47,-0.17 0.99,0.08 1.16,0.56 0.28,0.77 0.24,1.87 -0.7,2.67 -1.21,1.04 -2.65,0.5 -3.07,0.31 -1.23,-0.57 -1.91,-1.81 -1.78,-3.24 0.18,-1.88 1.61,-3.78 4.38,-3.78 3.61,0 4.81,3 4.94,4.58l0.01 0.02c0.02,0.26 0.17,2.29 -1.16,3.95 -0.97,1.21 -2.48,1.94 -4.5,2.15 -0.43,0.05 -2.98,0.07 -7.61,0.07 -1.8,0 -3.92,0 -6.35,-0.01 -0.47,2.09 -0.74,4.25 -0.78,6.46l3.77 0c0.51,0 0.92,0.41 0.92,0.92 0,0.5 -0.41,0.91 -0.92,0.91l-3.77 0c0.11,3.33 0.73,6.53 1.77,9.53 0.55,-1.93 2.24,-3.64 5.15,-3.64 4.42,0 5.89,3.67 6.06,5.62l0 0.03c0,0 0.05,0.45 -0.01,1.14l7.75 0c0.51,0 0.92,0.41 0.92,0.91 0,0.51 -0.41,0.92 -0.92,0.92l-8.08 0c-0.02,0 -0.03,-0.01 -0.05,-0.01 -0.21,0.63 -0.54,1.28 -1.03,1.89 -1.04,1.31 -2.61,2.16 -4.67,2.52 0.26,0.34 0.53,0.67 0.81,0.99 2.47,1.75 5.3,2.63 8.48,2.63 2.55,0 4.83,-0.85 6.85,-2.57 2.14,-1.79 3.22,-3.95 3.22,-6.48 0,-3.67 -1.24,-6.52 -3.71,-8.56z"/>
   <path class="fil3" d="M38.6 25.29c0,0.35 -0.28,0.64 -0.63,0.64 -0.35,0 -0.64,-0.29 -0.64,-0.64 0,-0.35 0.29,-0.63 0.64,-0.63 0.35,0 0.63,0.28 0.63,0.63zm1.71 -7.99c0.95,0 1.71,0.77 1.71,1.71 0,0.95 -0.76,1.71 -1.71,1.71 -0.94,0 -1.71,-0.76 -1.71,-1.71 0,-0.94 0.77,-1.71 1.71,-1.71zm-7.29 -1.17c-0.35,0 -0.64,-0.29 -0.64,-0.64 0,-0.35 0.29,-0.63 0.64,-0.63 0.35,0 0.63,0.28 0.63,0.63 0,0.35 -0.28,0.64 -0.63,0.64zm-2.67 -10.07c-0.6,0 -1.08,-0.48 -1.08,-1.07 0,-0.6 0.48,-1.08 1.08,-1.08 0.59,0 1.07,0.48 1.07,1.08 0,0.59 -0.48,1.07 -1.07,1.07zm8.24 1.06l14.18 0c-5.56,-4.44 -12.62,-7.11 -20.29,-7.11 -6.12,0 -11.84,1.7 -16.73,4.64 0.14,-0.01 0.28,-0.01 0.42,-0.01 4.21,0 7.76,1.32 10.64,3.95 2.99,2.69 4.48,6.12 4.48,10.27 0,3.9 -1.67,7.32 -5,10.26 -0.18,0.16 -0.07,0.46 0.17,0.46l19.35 0 0 -15.93 -7.22 0 0 -6.53z"/>
  </g>
 </g>
</svg>
